<svg viewBox="0 0 800 800" xmlns="http://www.w3.org/2000/svg"><path d="M549.3483463260075,320.3274290772151 L543.3524776272745,320.1340139579012 M549.3483463260075,320.3274290772151 L549.7799600964167,315.3442519097611 M250.63446761996593,296.83036149590913 L549.7799600964167,315.3442519097611 M255.3050677972968,310.84216202790185 L250.63446761996593,296.83036149590913 M295.0243115715074,312.1234279561022 L255.3050677972968,310.84216202790185 M296.1577312950844,309.4873897810741 L295.0243115715074,312.1234279561022 M301.98531332428195,312.16174967819654 L296.1577312950844,309.4873897810741 M301.98531332428195,312.16174967819654 L301.90662158697796,312.34543795660124 M542.1481163887292,320.09516359536747 L301.90662158697796,312.34543795660124 M542.1481163887292,320.09516359536747 L542.131006146288,320.0157755957717 M542.131006146288,320.0157755957717 L543.1158113008729,319.0168249583105 M543.3524776272745,320.1340139579012 L543.1158113008729,319.0168249583105 M585.4812854919851,319.6456755080457 L549.3483463260075,320.3274290772151 M580.153864609936,319.3997945442588 L585.4812854919851,319.6456755080457 M580.153864609936,319.3997945442588 L543.3524776272745,320.1340139579012 M580.0295100910353,318.1339385984485 L543.1158113008729,319.0168249583105 M580.0295100910353,318.1339385984485 L580.153864609936,319.3997945442588 M579.0689068600065,319.26014287537873 L580.0295100910353,318.1339385984485 M579.0689068600065,319.26014287537873 L542.131006146288,320.0157755957717 M579.078044396219,319.3501413036257 L542.1481163887292,320.09516359536747 M579.0689068600065,319.26014287537873 L579.078044396219,319.3501413036257 M317.5932260137906,307.28161122443674 L579.078044396219,319.3501413036257 M301.90662158697796,312.34543795660124 L317.5932260137906,307.28161122443674 M301.98531332428195,312.16174967819654 L317.7006778803303,307.0289868432199 M317.5932260137906,307.28161122443674 L317.7006778803303,307.0289868432199 M250.63446761996593,296.83036149590913 L246.29025169407888,283.7977137182482 M246.29025169407888,283.7977137182482 L586.2599941141955,314.0290324669949 M586.2599941141955,314.0290324669949 L549.7799600964167,315.3442519097611 M585.4812854919851,319.6456755080457 L586.2599941141955,314.0290324669949 M317.7006778803303,307.0289868432199 L309.97578426351265,303.21099999087517 M308.41681989927383,306.8580847883821 L309.97578426351265,303.21099999087517 M253.1264205219076,304.30622020173445 L308.41681989927383,306.8580847883821 M253.1264205219076,304.30622020173445 L246.29025169407888,283.7977137182482 M296.1577312950844,309.4873897810741 L309.97578426351265,303.21099999087517 M255.3050677972968,310.84216202790185 L253.1264205219076,304.30622020173445 M295.0243115715074,312.1234279561022 L308.41681989927383,306.8580847883821" stroke="black"  stroke-width="4"  fill="red"/>
<path d="M579.6323337369577,339.90544363894753 L580.5255652127346,338.7761078622525 M567.4602374863762,329.5134835535029 L568.3981990493762,328.4267311769985 M579.6323337369577,339.90544363894753 L579.5437756732144,339.2801374944991 M579.5437756732144,339.2801374944991 L579.4110972075202,338.6530568795505 M579.4110972075202,338.6530568795505 L579.2346395615818,338.02695379192465 M579.2346395615818,338.02695379192465 L579.0149637554277,337.40460174486543 M579.0149637554277,337.40460174486543 L578.7528467279941,336.7887863518689 M578.7528467279941,336.7887863518689 L578.4492855172722,336.18228400766344 M578.4492855172722,336.18228400766344 L578.1054917449054,335.5878437726692 M578.1054917449054,335.5878437726692 L577.7228845437746,335.00816862899035 M577.7228845437746,335.00816862899035 L577.3030919660246,334.44590846706535 M577.3030919660246,334.44590846706535 L576.8479283640384,333.9036302754763 M576.8479283640384,333.9036302754763 L576.3594033200402,333.38380590729344 M576.3594033200402,333.38380590729344 L575.8396937789872,332.88880974416753 M575.8396937789872,332.88880974416753 L575.2911404207359,332.42087824696335 M575.2911404207359,332.42087824696335 L574.7162279548875,331.9821183062711 M574.7162279548875,331.9821183062711 L574.1175790612842,331.57448293634604 M574.1175790612842,331.57448293634604 L573.4979214465815,331.19976718928126 M573.4979214465815,331.19976718928126 L572.860087833901,330.8595887638168 M572.860087833901,330.8595887638168 L572.2069882191713,330.55538534591966 M572.2069882191713,330.55538534591966 L571.5415865131058,330.2884092492347 M571.5415865131058,330.2884092492347 L570.8668993115141,330.059711092487 M570.8668993115141,330.059711092487 L570.1859642206284,329.87015500420836 M570.1859642206284,329.87015500420836 L569.501815209808,329.7203981289953 M569.501815209808,329.7203981289953 L568.8174868308367,329.6108956840149 M568.8174868308367,329.6108956840149 L568.135976902997,329.54190455854393 M568.135976902997,329.54190455854393 L567.4602374863762,329.5134835535029 M580.5255652127346,338.7761078622525 L580.439110263949,338.1509899142184 M580.439110263949,338.1509899142184 L580.3085833423185,337.5242693669291 M580.3085833423185,337.5242693669291 L580.1343171715118,336.898696493624 M580.1343171715118,336.898696493624 L579.9168637958785,336.2770421495788 M579.9168637958785,336.2770421495788 L579.656990768978,335.66208833199164 M579.656990768978,335.66208833199164 L579.3556883331889,335.05660671199763 M579.3556883331889,335.05660671199763 L579.014152061432,334.4633413683804 M579.014152061432,334.4633413683804 L578.6337936666569,333.88498889926706 M578.6337936666569,333.88498889926706 L578.2162275981636,333.3241923574153 M578.2162275981636,333.3241923574153 L577.763263557462,332.78351067102125 M577.763263557462,332.78351067102125 L577.2768972881031,332.2654076048843 M577.2768972881031,332.2654076048843 L576.7592949826991,331.77224861137296 M576.7592949826991,331.77224861137296 L576.2127866792584,331.3062607582305 M576.2127866792584,331.3062607582305 L575.6398497037735,330.86954099137114 M575.6398497037735,330.86954099137114 L575.0430872882332,330.4640325413032 M575.0430872882332,330.4640325413032 L574.4252296414913,330.09151957649533 M574.4252296414913,330.09151957649533 L573.7890908355628,329.7536095158965 M573.7890908355628,329.7536095158965 L573.1375719488535,329.4517293282569 M573.1375719488535,329.4517293282569 L572.4736349055702,329.18712035002477 M572.4736349055702,329.18712035002477 L571.8002886970752,328.96082254240355 M571.8002886970752,328.96082254240355 L571.1205546246512,328.7736896321811 M571.1205546246512,328.7736896321811 L570.4374700605908,328.62636802505966 M570.4374700605908,328.62636802505966 L569.7540642855317,328.51930272795624 M569.7540642855317,328.51930272795624 L569.0733244272187,328.45274075125207 M569.0733244272187,328.45274075125207 L568.3981990493762,328.4267311769985 M554.8965718995539,329.3608413661012 L555.8426538614318,328.3189369194098 M567.4602374863762,329.5134835535029 L554.8965718995539,329.3608413661012 M568.3981990493762,328.4267311769985 L555.8426538614318,328.3189369194098 M547.3306529060147,338.47681655701365 L548.2457969004294,337.4662673061264 M554.8965718995539,329.3608413661012 L554.2837658828082,329.3726977668596 M554.2837658828082,329.3726977668596 L553.6831500295089,329.4230516923314 M553.6831500295089,329.4230516923314 L553.0972016495394,329.51142902176395 M553.0972016495394,329.51142902176395 L552.5282948233503,329.63718758584355 M552.5282948233503,329.63718758584355 L551.9786899691658,329.79952689071536 M551.9786899691658,329.79952689071536 L551.4505436832162,329.9974939293893 M551.4505436832162,329.9974939293893 L550.945871466514,330.22998673980635 M550.945871466514,330.22998673980635 L550.4665552444358,330.4957810302657 M550.4665552444358,330.4957810302657 L550.014352642014,330.79352220776804 M550.014352642014,330.79352220776804 L549.5908673742201,331.1217454089432 M549.5908673742201,331.1217454089432 L549.1975580021206,331.4788841642284 M549.1975580021206,331.4788841642284 L548.8357439474569,331.86327511134124 M548.8357439474569,331.86327511134124 L548.5065847488885,332.2731766027366 M548.5065847488885,332.2731766027366 L548.211099955336,332.7067719865973 M548.211099955336,332.7067719865973 L547.9501603239848,333.1621898975241 M547.9501603239848,333.1621898975241 L547.7244912041409,333.63749341567967 M547.7244912041409,333.63749341567967 L547.5346623122489,334.13071237971525 M547.5346623122489,334.13071237971525 L547.3811160539098,334.6398402879714 M547.3811160539098,334.6398402879714 L547.26415367575,335.1628390657085 M547.26415367575,335.1628390657085 L547.1839321168368,335.69765818351715 M547.1839321168368,335.69765818351715 L547.1404831991475,336.24223381876527 M547.1404831991475,336.24223381876527 L547.1337110275498,336.7944971826078 M547.1337110275498,336.7944971826078 L547.1633951480482,337.352382055313 M547.1633951480482,337.352382055313 L547.2291938356325,337.91383529632935 M547.2291938356325,337.91383529632935 L547.3306529060147,338.47681655701365 M555.8426538614318,328.3189369194098 L555.2300770036722,328.3329848853297 M555.2300770036722,328.3329848853297 L554.629533835206,328.3854974337386 M554.629533835206,328.3854974337386 L554.0435019811141,328.47599248533186 M554.0435019811141,328.47599248533186 L553.4743633374774,328.60382016544247 M553.4743633374774,328.60382016544247 L552.9243803892288,328.7681727092891 M552.9243803892288,328.7681727092891 L552.3957024841685,328.9680905016973 M552.3957024841685,328.9680905016973 L551.890358686426,329.20246494350715 M551.890358686426,329.20246494350715 L551.4102352319139,329.47006563649063 M551.4102352319139,329.47006563649063 L550.9570879663968,329.76953251129703 M550.9570879663968,329.76953251129703 L550.5325261771352,330.09939543666013 M550.5325261771352,330.09939543666013 L550.1380245362382,330.4580827762442 M550.1380245362382,330.4580827762442 L549.7748957499884,330.8439270495704 M549.7748957499884,330.8439270495704 L549.4443164427954,331.2551821597814 M549.4443164427954,331.2551821597814 L549.1473102795608,331.69002779097605 M549.1473102795608,331.69002779097605 L548.8847557862666,332.1465891554816 M548.8847557862666,332.1465891554816 L548.6573863632104,332.6229262916696 M548.6573863632104,332.6229262916696 L548.4657833598211,333.1170661319916 M548.4657833598211,333.1170661319916 L548.3103909517381,333.6270000959448 M548.3103909517381,333.6270000959448 L548.1915222396675,334.1506879115722 M548.1915222396675,334.1506879115722 L548.1093394979754,334.68607748032025 M548.1093394979754,334.68607748032025 L548.063889734526,335.23110322847515 M548.063889734526,335.23110322847515 L548.0550823475917,335.7836954267839 M548.0550823475917,335.7836954267839 L548.0827053906232,336.34178707485324 M548.0827053906232,336.34178707485324 L548.1464255511919,336.90332454022575 M548.1464255511919,336.90332454022575 L548.2457969004294,337.4662673061264 M555.1997620447903,375.67630715519965 L555.980113386795,374.6748263150691 M547.3306529060147,338.47681655701365 L555.1997620447903,375.67630715519965 M548.2457969004294,337.4662673061264 L555.980113386795,374.6748263150691 M550.8957077196344,374.94813058036937 L551.677624179039,373.96340748275145 M555.1997620447903,375.67630715519965 L550.8957077196344,374.94813058036937 M555.980113386795,374.6748263150691 L551.677624179039,373.96340748275145 M537.2886477964014,314.9844801139238 L538.2936171182687,314.00153214466826 M550.8957077196344,374.94813058036937 L537.2886477964014,314.9844801139238 M551.677624179039,373.96340748275145 L538.2936171182687,314.00153214466826 M544.6361896940194,303.69184212612436 L545.6809999936137,302.6860090361134 M537.2886477964014,314.9844801139238 L537.16105573135,314.3413988721761 M537.16105573135,314.3413988721761 L537.0698536250819,313.69668213504553 M537.0698536250819,313.69668213504553 L537.0156021772136,313.0526535614022 M537.0156021772136,313.0526535614022 L536.9987520659621,312.4116362268505 M536.9987520659621,312.4116362268505 L537.0196305588231,311.7760060345203 M537.0196305588231,311.7760060345203 L537.07844403279,311.1481456759163 M537.07844403279,311.1481456759163 L537.1752590041885,310.5304385191576 M537.1752590041885,310.5304385191576 L537.3100255409972,309.9252793645759 M537.3100255409972,309.9252793645759 L537.4825390746112,309.3350598017374 M537.4825390746112,309.3350598017374 L537.6924610548303,308.7621471526605 M537.6924610548303,308.7621471526605 L537.9393106560572,308.20889835899345 M537.9393106560572,308.20889835899345 L538.2224508213469,307.6776212530838 M538.2224508213469,307.6776212530838 L538.5410910031802,307.1705944808481 M538.5410910031802,307.1705944808481 L538.8942908670736,306.69002009934627 M538.8942908670736,306.69002009934627 L539.2809472682452,306.2380551859219 M539.2809472682452,306.2380551859219 L539.6998124205403,305.81677235495494 M539.6998124205403,305.81677235495494 L540.1494669590069,305.4281350004021 M540.1494669590069,305.4281350004021 L540.6283472900404,305.074031030715 M540.6283472900404,305.074031030715 L541.1347315439739,304.7562047229752 M541.1347315439739,304.7562047229752 L541.666754733694,304.4762945207215 M541.666754733694,304.4762945207215 L542.2223974265867,304.23577758774354 M542.2223974265867,304.23577758774354 L542.7995054815681,304.0360016893432 M542.7995054815681,304.0360016893432 L543.3958008119721,303.8781228383019 M543.3958008119721,303.8781228383019 L544.0088698719858,303.7631321009797 M544.0088698719858,303.7631321009797 L544.6361896940194,303.69184212612436 M538.2936171182687,314.00153214466826 L538.1685101696999,313.35884128941507 M538.1685101696999,313.35884128941507 L538.0797935283041,312.71440161848017 M538.0797935283041,312.71440161848017 L538.0280218514743,312.0705361737873 M538.0280218514743,312.0705361737873 L538.0136285944782,311.4295669150154 M538.0136285944782,311.4295669150154 L538.0369345844636,310.79386960003995 M538.0369345844636,310.79386960003995 L538.0981322494742,310.1658264865244 M538.0981322494742,310.1658264865244 L538.1972852429799,309.5478216613099 M538.1972852429799,309.5478216613099 L538.334329536427,308.94225000024176 M538.334329536427,308.94225000024176 L538.5090502432395,308.3515036971271 M538.5090502432395,308.3515036971271 L538.7211022526669,307.7779513485763 M538.7211022526669,307.7779513485763 L538.9699871143147,307.22395031918455 M538.9699871143147,307.22395031918455 L539.2550578231255,306.6918098579475 M539.2550578231255,306.6918098579475 L539.5755215892285,306.1838111148497 M539.5755215892285,306.1838111148497 L539.9304249889897,305.70215786034805 M539.9304249889897,305.70215786034805 L540.318659683669,305.2490099396761 M540.318659683669,305.2490099396761 L540.7389580797737,304.8264414579463 M540.7389580797737,304.8264414579463 L541.1899041676959,304.436420194957 M541.1899041676959,304.436420194957 L541.6699232338229,304.0808370823047 M541.6699232338229,304.0808370823047 L542.1772905135488,303.761440783509 M542.1772905135488,303.761440783509 L542.7101238176676,303.4798726433136 M542.7101238176676,303.4798726433136 L543.2664099114738,303.2376159466106 M543.2664099114738,303.2376159466106 L543.8439903783596,303.0360236342526 M543.8439903783596,303.0360236342526 L544.4405725470936,302.8762559638625 M544.4405725470936,302.8762559638625 L545.053751779895,302.75931152656676 M545.053751779895,302.75931152656676 L545.6809999936137,302.6860090361134 M569.8885116642356,301.7301349994261 L570.9180575386597,300.64372104274906 M544.6361896940194,303.69184212612436 L569.8885116642356,301.7301349994261 M545.6809999936137,302.6860090361134 L570.9180575386597,300.64372104274906 M583.3988616198411,313.1872090463679 L584.3733201851858,312.04902021142556 M569.8885116642356,301.7301349994261 L570.643909573618,301.6961272003517 M570.643909573618,301.6961272003517 L571.4056896049774,301.7110927989326 M571.4056896049774,301.7110927989326 L572.1705203664537,301.77528331845593 M572.1705203664537,301.77528331845593 L572.9350211405624,301.88871764502665 M572.9350211405624,301.88871764502665 L573.6957583689417,302.051180844313 M573.6957583689417,302.051180844313 L574.4492893946518,302.26217852626996 M574.4492893946518,302.26217852626996 L575.1921829712945,302.5209914421696 M575.1921829712945,302.5209914421696 L575.9210244749429,302.82662711853305 M575.9210244749429,302.82662711853305 L576.6324466079802,303.1778715362658 M576.6324466079802,303.1778715362658 L577.3231581488532,303.5732358601437 M577.3231581488532,303.5732358601437 L577.9899616687626,304.01102792671503 M577.9899616687626,304.01102792671503 L578.6297568692003,304.4893082462217 M578.6297568692003,304.4893082462217 L579.2395941753155,305.005915070351 M579.2395941753155,305.005915070351 L579.816665794956,305.55850960415427 M579.816665794956,305.55850960415427 L580.3583393799254,306.1445413026901 M580.3583393799254,306.1445413026901 L580.862168847839,306.76130600335165 M580.862168847839,306.76130600335165 L581.3259106180294,307.40592827628416 M581.3259106180294,307.40592827628416 L581.7475354163257,308.07541452570996 M581.7475354163257,308.07541452570996 L582.1252416070699,308.76664619332814 M582.1252416070699,308.76664619332814 L582.4574640237015,309.476413128853 M582.4574640237015,309.476413128853 L582.7428861775971,310.2014441794076 M582.7428861775971,310.2014441794076 L582.9804312592473,310.9384061822845 M582.9804312592473,310.9384061822845 L583.1692813990967,311.6839242413585 M583.1692813990967,311.6839242413585 L583.3088636116717,312.4346492477031 M583.3088636116717,312.4346492477031 L583.3988616198411,313.1872090463679 M570.9180575386597,300.64372104274906 L571.6726457034858,300.607306779498 M571.6726457034858,300.607306779498 L572.4334291226173,300.6198101637267 M572.4334291226173,300.6198101637267 L573.197084411834,300.68149250538846 M573.197084411834,300.68149250538846 L573.9602262109202,300.7923806670599 M573.9602262109202,300.7923806670599 L574.7194381341927,300.95227165707587 M574.7194381341927,300.95227165707587 L575.4712854032068,301.1606818457276 M575.4712854032068,301.1606818457276 L576.2123353890588,301.4169014118865 M576.2123353890588,301.4169014118865 L576.9391935120169,301.71995118934535 M576.9391935120169,301.71995118934535 L577.6484996968566,302.06862842422794 M577.6484996968566,302.06862842422794 L578.3369774721403,302.4614569839244 M578.3369774721403,302.4614569839244 L579.0014313058577,302.89675534148256 M579.0014313058577,302.89675534148256 L579.6387835654195,303.3725980005242 M579.6387835654195,303.3725980005242 L580.2460942542864,303.8868350697002 M580.2460942542864,303.8868350697002 L580.8205721299474,304.43714045169605 M580.8205721299474,304.43714045169605 L581.3595917113414,305.0209746268318 M581.3595917113414,305.0209746268318 L581.8607204597706,305.63564516297794 M581.8607204597706,305.63564516297794 L582.3217348552862,306.2782888691997 M582.3217348552862,306.2782888691997 L582.7406157060655,306.945922373403 M582.7406157060655,306.945922373403 L583.115574461805,307.63543728438515 M583.115574461805,307.63543728438515 L583.4450619993233,308.343633209226 M583.4450619993233,308.343633209226 L583.7277676948208,309.0672467705913 M583.7277676948208,309.0672467705913 L583.9626298820718,309.80295292375007 M583.9626298820718,309.80295292375007 L584.1488388627076,310.5473832007975 M584.1488388627076,310.5473832007975 L584.2858387468762,311.2971949004491 M584.2858387468762,311.2971949004491 L584.3733201851858,312.04902021142556 M589.3107265851595,381.4473322043003 L590.0651493401272,380.31080476998557 M583.3988616198411,313.1872090463679 L589.3107265851595,381.4473322043003 M584.3733201851858,312.04902021142556 L590.0651493401272,380.31080476998557 M583.9624740891136,380.5424941400741 L584.722549344356,379.4274030769192 M589.3107265851595,381.4473322043003 L583.9624740891136,380.5424941400741 M590.0651493401272,380.31080476998557 L584.722549344356,379.4274030769192 M583.9624740891136,380.5424941400741 L579.6323337369577,339.90544363894753 M584.722549344356,379.4274030769192 L580.5255652127346,338.7761078622525 M578.4065372081552,312.73615244805006 L579.3891087053205,311.6149821958582 M579.0689068600065,319.26014287537873 L580.0295100910353,318.1339385984485 M578.4065372081552,312.73615244805006 L579.0689068600065,319.26014287537873 M579.3891087053205,311.6149821958582 L580.0295100910353,318.1339385984485 M540.8936097440564,314.27445549554005 L541.9003688726656,313.2792761346992 M540.8936097440564,314.27445549554005 L578.4065372081552,312.73615244805006 M541.9003688726656,313.2792761346992 L579.3891087053205,311.6149821958582 M542.131006146288,320.0157755957717 L543.1158113008729,319.0168249583105 M542.131006146288,320.0157755957717 L540.8936097440564,314.27445549554005 M543.1158113008729,319.0168249583105 L541.9003688726656,313.2792761346992 M579.0689068600065,319.26014287537873 L542.131006146288,320.0157755957717 M580.0295100910353,318.1339385984485 L543.1158113008729,319.0168249583105" stroke="black"  stroke-width="4"  fill="red"/>
<path d="M282.6938945735933,358.11331195711927 L276.4250144497025,356.13016429484315 M295.70810234765327,335.0341364406254 L289.15512394033067,332.48126733844754 M282.6938945735933,358.11331195711927 L283.34118685347084,356.61535671743536 M283.34118685347084,356.61535671743536 L283.9931681464843,355.1330997804827 M283.9931681464843,355.1330997804827 L284.64788675285615,353.67099235260025 M284.64788675285615,353.67099235260025 L285.3033677847184,352.2334500364166 M285.3033677847184,352.2334500364166 L285.9576430027349,350.82486485973504 M285.9576430027349,350.82486485973504 L286.60873056544403,349.4495948644956 M286.60873056544403,349.4495948644956 L287.25463956318805,348.11196007750846 M287.25463956318805,348.11196007750846 L287.8933544266297,346.8162385883761 M287.8933544266297,346.8162385883761 L288.52286605317295,345.56668070466367 M288.52286605317295,345.56668070466367 L289.1411936428867,344.36747691679653 M289.1411936428867,344.36747691679653 L289.7462687415429,343.22276864382417 M289.7462687415429,343.22276864382417 L290.3360784241495,342.1366620598982 M290.3360784241495,342.1366620598982 L290.9085956053773,341.11316649410696 M290.9085956053773,341.11316649410696 L291.4618059207879,340.1562348427727 M291.4618059207879,340.1562348427727 L291.99364915293825,339.2697286673426 M291.99364915293825,339.2697286673426 L292.5021447060677,338.4574163236672 M292.5021447060677,338.4574163236672 L292.9852741493403,337.7229425558223 M292.9852741493403,337.7229425558223 L293.4410458772558,337.0698229559386 M293.4410458772558,337.0698229559386 L293.86755865982195,336.50142717228226 M293.86755865982195,336.50142717228226 L294.2628664279555,336.0209386536024 M294.2628664279555,336.0209386536024 L294.6250788893935,335.63137387795393 M294.6250788893935,335.63137387795393 L294.95243984572517,335.33551236364326 M294.95243984572517,335.33551236364326 L295.2431638452874,335.1358904303214 M295.2431638452874,335.1358904303214 L295.495576881103,335.03477621800545 M295.495576881103,335.03477621800545 L295.70810234765327,335.0341364406254 M276.4250144497025,356.13016429484315 L277.08399664758764,354.6081448886531 M277.08399664758764,354.6081448886531 L277.74573485635176,353.10143632187476 M277.74573485635176,353.10143632187476 L278.4082576059483,351.6145398410382 M278.4082576059483,351.6145398410382 L279.069573710042,350.1519225286559 M279.069573710042,350.1519225286559 L279.7277029973543,348.7180300114963 M279.7277029973543,348.7180300114963 L280.3806336374183,347.3172771943446 M280.3806336374183,347.3172771943446 L281.0264137834697,345.95404011641455 M281.0264137834697,345.95404011641455 L281.663004516702,344.63265873667876 M281.663004516702,344.63265873667876 L282.28842161296234,343.35744667399064 M282.28842161296234,343.35744667399064 L282.90064829754465,342.1326635304813 M282.90064829754465,342.1326635304813 L283.4976467035227,340.96252008755334 M283.4976467035227,340.96252008755334 L284.07741869451706,339.8511972136447 M284.07741869451706,339.8511972136447 L284.6379554759577,338.8027820609429 M284.6379554759577,338.8027820609429 L285.17724354348456,337.8213102013507 M285.17724354348456,337.8213102013507 L285.69331429333613,336.910726912486 M285.69331429333613,336.910726912486 L286.1841313058075,336.0748928390579 M286.1841313058075,336.0748928390579 L286.64777782816986,335.31754422789214 M286.64777782816986,335.31754422789214 L287.0823030406635,334.6422936073147 M287.0823030406635,334.6422936073147 L287.48580918740026,334.0526122010317 M287.48580918740026,334.0526122010317 L287.85640070104404,333.5517861700615 M287.85640070104404,333.5517861700615 L288.1923117257037,333.1429366327109 M288.1923117257037,333.1429366327109 L288.49178438028724,332.828952311939 M288.49178438028724,332.828952311939 L288.75310192280074,332.61247821126324 M288.75310192280074,332.61247821126324 L288.9747125239958,332.49589123624713 M288.9747125239958,332.49589123624713 L289.15512394033067,332.48126733844754 M299.8961157428292,336.1280598279751 L292.6358777658371,333.28903156630355 M295.70810234765327,335.0341364406254 L299.8961157428292,336.1280598279751 M289.15512394033067,332.48126733844754 L292.6358777658371,333.28903156630355 M290.46948563533965,369.33195565914286 L282.1491212498643,366.8933170335481 M299.8961157428292,336.1280598279751 L300.11326509586047,336.24829616892384 M300.11326509586047,336.24829616892384 L300.2831574585604,336.4845326687836 M300.2831574585604,336.4845326687836 L300.4042322801736,336.8379732500015 M300.4042322801736,336.8379732500015 L300.4750937909795,337.30935128700094 M300.4750937909795,337.30935128700094 L300.49455956080254,337.8988961789265 M300.49455956080254,337.8988961789265 L300.46153146643735,338.6062946674942 M300.46153146643735,338.6062946674942 L300.3752195055605,339.43063193708895 M300.3752195055605,339.43063193708895 L300.23508144444804,340.3704133995745 M300.23508144444804,340.3704133995745 L300.04073121429667,341.42348661684053 M300.04073121429667,341.42348661684053 L299.79212999111166,342.58704025371645 M299.79212999111166,342.58704025371645 L299.48953432305245,343.8575822310871 M299.48953432305245,343.8575822310871 L299.13343919341844,345.2309135181243 M299.13343919341844,345.2309135181243 L298.72474196864596,346.7021403026253 M298.72474196864596,346.7021403026253 L298.26460183831017,348.26566262052773 M298.26460183831017,348.26566262052773 L297.75452285912365,349.9152140310746 M297.75452285912365,349.9152140310746 L297.19632813548236,351.6438172314543 M297.19632813548236,351.6438172314543 L296.5922518751484,353.44388081392094 M296.5922518751484,353.44388081392094 L295.94475090429995,355.30721200114243 M295.94475090429995,355.30721200114243 L295.2566440609262,357.22503932044026 M295.2566440609262,357.22503932044026 L294.5310791856373,359.1881119543709 M294.5310791856373,359.1881119543709 L293.77146783173333,361.1867368714303 M293.77146783173333,361.1867368714303 L292.9814862097496,363.21085602293243 M292.9814862097496,363.21085602293243 L292.16504395533434,365.25013131958303 M292.16504395533434,365.25013131958303 L291.32627916742365,367.29404130707576 M291.32627916742365,367.29404130707576 L290.46948563533965,369.33195565914286 M292.6358777658371,333.28903156630355 L292.81207964675156,333.3939691366152 M292.81207964675156,333.3939691366152 L292.939578916995,333.6170321089263 M292.939578916995,333.6170321089263 L293.0169400144155,333.9595605025187 M293.0169400144155,333.9595605025187 L293.04285009650073,334.42241933748477 M293.04285009650073,334.42241933748477 L293.0162730871773,335.00596186635136 M293.0162730871773,335.00596186635136 L292.9363430702457,335.70998684534425 M292.9363430702457,335.70998684534425 L292.80235786596654,336.53368363423345 M292.80235786596654,336.53368363423345 L292.613952916841,337.4756476820877 M292.613952916841,337.4756476820877 L292.37098032768483,338.53379843545576 M292.37098032768483,338.53379843545576 L292.0735990816525,339.7053806613521 M292.0735990816525,339.7053806613521 L291.72219109038645,340.986941886751 M291.72219109038645,340.986941886751 L291.3175735157182,342.3742942416121 M291.3175735157182,342.3742942416121 L290.86078566998077,343.8625395729545 M290.86078566998077,343.8625395729545 L290.35324226642155,345.4460448226982 M290.35324226642155,345.4460448226982 L289.7966814557857,347.1184867948857 M289.7966814557857,347.1184867948857 L289.19316316308795,348.8728043711966 M289.19316316308795,348.8728043711966 L288.54513518752356,350.70129885409057 M288.54513518752356,350.70129885409057 L287.8553487401105,352.59563870667455 M287.8553487401105,352.59563870667455 L287.1268321848364,354.5468928372745 M287.1268321848364,354.5468928372745 L286.36299607196906,356.5456233596527 M286.36299607196906,356.5456233596527 L285.5674212816736,358.5819332797554 M285.5674212816736,358.5819332797554 L284.7440304793871,360.64553398528506 M284.7440304793871,360.64553398528506 L283.8969393984876,362.72584051256786 M283.8969393984876,362.72584051256786 L283.0304795218158,364.81206966005254 M283.0304795218158,364.81206966005254 L282.1491212498643,366.8933170335481 M223.17884726899015,527.4767056058854 L213.01827379392648,528.5697033990698 M290.46948563533965,369.33195565914286 L223.17884726899015,527.4767056058854 M282.1491212498643,366.8933170335481 L213.01827379392648,528.5697033990698 M220.81585840380617,540.3210921855738 L209.93485065987275,541.7985480377208 M223.17884726899015,527.4767056058854 L220.81585840380617,540.3210921855738 M213.01827379392648,528.5697033990698 L209.93485065987275,541.7985480377208 M327.45221912267897,289.31406938099286 L319.627773071531,284.92776647378355 M220.81585840380617,540.3210921855738 L327.45221912267897,289.31406938099286 M209.93485065987275,541.7985480377208 L319.627773071531,284.92776647378355 M333.280344977832,263.41761546731846 L326.4285199238493,258.9779717620985 M327.45221912267897,289.31406938099286 L328.31922846642215,287.2463746504596 M328.31922846642215,287.2463746504596 L329.1511977115041,285.2075927618936 M329.1511977115041,285.2075927618936 L329.9438960053875,283.2083658630717 M329.9438960053875,283.2083658630717 L330.6933409626014,281.258893244294 M330.6933409626014,281.258893244294 L331.39590753721944,279.36905649220733 M331.39590753721944,279.36905649220733 L332.048278401393,277.54819331879105 M332.048278401393,277.54819331879105 L332.64757677468333,275.8050494779802 M332.64757677468333,275.8050494779802 L333.1912145305506,274.1477554461793 M333.1912145305506,274.1477554461793 L333.6770720155938,272.58377108339187 M333.6770720155938,272.58377108339187 L334.10338882965664,271.11979470906465 M334.10338882965664,271.11979470906465 L334.46879112187224,269.7618119990843 M334.46879112187224,269.7618119990843 L334.77233027186855,268.514987371087 M334.77233027186855,268.514987371087 L335.01345166430457,267.38375108537014 M335.01345166430457,267.38375108537014 L335.19194063488123,266.3716761103146 M335.19194063488123,266.3716761103146 L335.30799720225923,265.48164427398683 M335.30799720225923,265.48164427398683 L335.36206129960414,264.7157392387004 M335.36206129960414,264.7157392387004 L335.35499431900735,264.07528027808365 M335.35499431900735,264.07528027808365 L335.28789790439157,263.560964483271 M335.28789790439157,263.560964483271 L335.1621479163464,263.1727364718069 M335.1621479163464,263.1727364718069 L334.97933880427536,262.9099826466062 M334.97933880427536,262.9099826466062 L334.74134586151007,262.7714617769058 M334.74134586151007,262.7714617769058 L334.4502004738396,262.75545665389245 M334.4502004738396,262.75545665389245 L334.10805070002823,262.8596695654843 M334.10805070002823,262.8596695654843 L333.7172769774575,263.08141331357444 M333.7172769774575,263.08141331357444 L333.280344977832,263.41761546731846 M319.627773071531,284.92776647378355 L320.52028166980256,282.8155795207487 M320.52028166980256,282.8155795207487 L321.38039799348775,280.73504215818394 M321.38039799348775,280.73504215818394 L322.2036847259246,278.6970640051799 M322.2036847259246,278.6970640051799 L322.9860217880879,276.7120924200763 M322.9860217880879,276.7120924200763 L323.7235560261817,274.790222038877 M323.7235560261817,274.790222038877 L324.41278757635007,272.9409777254081 M324.41278757635007,272.9409777254081 L325.05057297514236,271.1732490829231 M325.05057297514236,271.1732490829231 L325.63413305546163,269.4952869110579 M325.63413305546163,269.4952869110579 L326.16113125359675,267.9146342229821 M326.16113125359675,267.9146342229821 L326.6295628732277,266.4380328403693 M326.6295628732277,266.4380328403693 L327.03789256224,265.0714913226552 M327.03789256224,265.0714913226552 L327.38496101118346,263.8201555608654 M327.38496101118346,263.8201555608654 L327.6699563965981,262.68839912942303 M327.6699563965981,262.68839912942303 L327.8924911717802,261.67971948397394 M327.8924911717802,261.67971948397394 L328.0525504252713,260.7968908070729 M328.0525504252713,260.7968908070729 L328.15046663422964,260.04187994179756 M328.15046663422964,260.04187994179756 L328.1868510773363,259.4158427137617 M328.1868510773363,259.4158427137617 L328.1626667636967,258.9193132356399 M328.1626667636967,258.9193132356399 L328.07910840578177,258.5520466508981 M328.07910840578177,258.5520466508981 L327.93769968051777,258.31324636577443 M327.93769968051777,258.31324636577443 L327.7401050404223,258.2014519622792 M327.7401050404223,258.2014519622792 L327.48822952615626,258.2147341902804 M327.48822952615626,258.2147341902804 L327.184175752313,258.35058892248423 M327.184175752313,258.35058892248423 L326.8301423843465,258.60609717140716 M326.8301423843465,258.60609717140716 L326.4285199238493,258.9779717620985 M319.6176881413645,275.09033001335416 L313.84257575674985,271.68946370316826 M333.280344977832,263.41761546731846 L319.6176881413645,275.09033001335416 M326.4285199238493,258.9779717620985 L313.84257575674985,271.68946370316826 M305.60706628175024,301.17452303248626 L300.0296243862497,298.4197962357687 M319.6176881413645,275.09033001335416 L319.2959214865408,275.3950389998838 M319.2959214865408,275.3950389998838 L318.93862420926575,275.78903607692047 M318.93862420926575,275.78903607692047 L318.54766615908886,276.26948857158163 M318.54766615908886,276.26948857158163 L318.12495588312896,276.83334331522866 M318.12495588312896,276.83334331522866 L317.67253356701565,277.47737767498325 M317.67253356701565,277.47737767498325 L317.1924426710286,278.19811854164936 M317.1924426710286,278.19811854164936 L316.68673157667786,278.9919837819174 M316.68673157667786,278.9919837819174 L316.1575251261285,279.8552175779669 M316.1575251261285,279.8552175779669 L315.60694885974954,280.78399535770126 M315.60694885974954,280.78399535770126 L315.03713710489774,281.77433325099946 M315.03713710489774,281.77433325099946 L314.45019106411195,282.822221982728 M314.45019106411195,282.822221982728 L313.8482914498818,283.92355654740254 M313.8482914498818,283.92355654740254 L313.2335339250725,285.0741534803591 M313.2335339250725,285.0741534803591 L312.6080495881728,286.2698418337493 M312.6080495881728,286.2698418337493 L311.97393023872615,287.50636570747974 M311.97393023872615,287.50636570747974 L311.3332572784399,288.7794788117446 M311.3332572784399,288.7794788117446 L310.68811300713895,290.0848849246071 M310.68811300713895,290.0848849246071 L310.0405521981184,291.41830332091985 M310.0405521981184,291.41830332091985 L309.39258249806517,292.77541885865713 M309.39258249806517,292.77541885865713 L308.7462371788225,294.1519239026636 M308.7462371788225,294.1519239026636 L308.10346324403724,295.54352040485236 M308.10346324403724,295.54352040485236 L307.46623772889654,296.945895011642 M307.46623772889654,296.945895011642 L306.83648513585933,298.35470944790734 M306.83648513585933,298.35470944790734 L306.21613555795705,299.765696876854 M306.21613555795705,299.765696876854 L305.60706628175024,301.17452303248626 M313.84257575674985,271.68946370316826 L313.5452716379353,272.0167490907619 M313.5452716379353,272.0167490907619 L313.2113617243794,272.43441918764734 M313.2113617243794,272.43441918764734 L312.8426313652475,272.93951197950844 M312.8426313652475,272.93951197950844 L312.440989723809,273.52885734534846 M312.440989723809,273.52885734534846 L312.0083639431415,274.1991037069512 M312.0083639431415,274.1991037069512 L311.5467483538213,274.9466584631019 M311.5467483538213,274.9466584631019 L311.0582058751737,275.76783167358326 M311.0582058751737,275.76783167358326 L310.5447619346281,276.6587484107353 M310.5447619346281,276.6587484107353 L310.00852627649596,277.6154799168356 M310.00852627649596,277.6154799168356 L309.4515817210066,278.63393681713893 M309.4515817210066,278.63393681713893 L308.87605975471763,279.7100187150063 M308.87605975471763,279.7100187150063 L308.2840590233279,280.8395205548058 M308.2840590233279,280.8395205548058 L307.67767330692544,282.01817160908496 M307.67767330692544,282.01817160908496 L307.05899756127906,283.24171528390804 M307.05899756127906,283.24171528390804 L306.430148536322,284.50581950203775 M306.430148536322,284.50581950203775 L305.7931970217652,285.8061625052952 M305.7931970217652,285.8061625052952 L305.1501794799792,287.1383727122777 M305.1501794799792,287.1383727122777 L304.5031664638958,288.498104172646 M304.5031664638958,288.498104172646 L303.85416399482074,289.880977502159 M303.85416399482074,289.880977502159 L303.2051891475884,291.2826233597773 M303.2051891475884,291.2826233597773 L302.5582324344671,292.698689733161 M302.5582324344671,292.698689733161 L301.9152605772402,294.12480728530267 M301.9152605772402,294.12480728530267 L301.2782292183545,295.55658684166985 M301.2782292183545,295.55658684166985 L300.6490454369677,296.9897100817412 M300.6490454369677,296.9897100817412 L300.0296243862497,298.4197962357687 M234.1370395612633,467.91177913063626 L227.20072444474295,467.7225772998595 M305.60706628175024,301.17452303248626 L234.1370395612633,467.91177913063626 M300.0296243862497,298.4197962357687 L227.20072444474295,467.7225772998595 M232.98530598907593,474.1722027221066 L225.7190754464457,474.07931251113075 M234.1370395612633,467.91177913063626 L232.98530598907593,474.1722027221066 M227.20072444474295,467.7225772998595 L225.7190754464457,474.07931251113075 M232.98530598907593,474.1722027221066 L282.6938945735933,358.11331195711927 M225.7190754464457,474.07931251113075 L276.4250144497025,356.13016429484315 M307.559310858951,299.1503412818566 L301.837821614363,296.276914560378 M301.98531332428195,312.16174967819654 L296.1577312950844,309.4873897810741 M307.559310858951,299.1503412818566 L301.98531332428195,312.16174967819654 M301.837821614363,296.276914560378 L296.1577312950844,309.4873897810741 M325.3033167328536,289.15461618232376 L317.7777139726237,284.9588540241632 M325.3033167328536,289.15461618232376 L307.559310858951,299.1503412818566 M317.7777139726237,284.9588540241632 L301.837821614363,296.276914560378 M317.7006778803303,307.0289868432199 L309.97578426351265,303.21099999087517 M317.7006778803303,307.0289868432199 L325.3033167328536,289.15461618232376 M309.97578426351265,303.21099999087517 L317.7777139726237,284.9588540241632 M301.98531332428195,312.16174967819654 L317.7006778803303,307.0289868432199 M296.1577312950844,309.4873897810741 L309.97578426351265,303.21099999087517" stroke="black"  stroke-width="4"  fill="red"/></svg>